<svg id="Capa_1" enable-background="new 0 0 512 512" height="512" viewBox="0 0 512 512" width="512" xmlns="http://www.w3.org/2000/svg"><g><path d="m337.432 260.399-28.681-8.798-32.901 107.25-122.034-27.119-6.507 29.286 123.816 27.514v48.093h30v-57.876z" fill="#2b2642"/><path d="m286.125 421.75c-24.882 0-45.125 20.243-45.125 45.125v30.125c0 8.284 6.716 15 15 15h60.25c8.284 0 15-6.716 15-15v-30.125c0-24.882-20.243-45.125-45.125-45.125z" fill="#979ae7"/><path d="m436.75 150.5c-8.284 0-15-6.716-15-15s6.716-15 15-15h60.199c-29.549-70.694-99.413-120.5-180.699-120.5h-120.5c-107.937 0-195.75 87.813-195.75 195.75v75.375h75.25c8.284 0 15 6.716 15 15s-6.716 15-15 15h-75.25v16.113c0 24.052 16.296 44.923 39.629 50.755l63.191 15.798c4.311 1.078 8.634 1.599 12.895 1.598 19.438-.001 37.525-10.828 46.589-28.956l36.45-72.899c3.865-7.73 11.636-12.533 20.279-12.533h104.059c20.08 0 38.132-11.157 47.112-29.117l9.3-18.6c3.865-7.73 11.636-12.533 20.279-12.533h97.217c8.284 0 15-6.716 15-15 0-15.571-1.838-30.72-5.29-45.25h-69.96z" fill="#ff4d72"/><path d="m436.75 150.5c-8.284 0-15-6.716-15-15s6.716-15 15-15h60.199c-29.549-70.694-99.413-120.5-180.699-120.5h-60.25v271h67.092c20.08 0 38.132-11.157 47.112-29.117l9.3-18.6c3.865-7.73 11.636-12.533 20.279-12.533h97.217c8.284 0 15-6.716 15-15 0-15.571-1.838-30.72-5.29-45.25z" fill="#f50066"/><path d="m316.25 512c8.284 0 15-6.716 15-15v-30.125c0-24.882-20.243-45.125-45.125-45.125v90.25z" fill="#7c7ee2"/></g></svg>